# xmcd
#
# Track frame offsets:
#	150
#	19125
#	36127
#	58409
#
# Disc length: 1414 seconds
#
# Revision: 5
# Processed by: cddbd v1.5.1PL2 Copyright (c) Steve Scherf et al.
# Submitted via: audiograbber 1.83.01
#
DISCID=31058404
DTITLE=The Black Eyed Peas - My Humps
DYEAR=1900
DGENRE=
TTITLE0=My Humps 1
TTITLE1=My Humps 2
TTITLE2=My Humps 3
TTITLE3=My Humps 4
EXTD=
EXTT0=
EXTT1=
EXTT2=
EXTT3=
PLAYORDER=
